<svg width="1078" height="1112" viewBox="0 0 1078 1112" fill="none" xmlns="http://www.w3.org/2000/svg">
<path opacity="0.5" d="M276.766 83.0353C172.536 179.315 156.384 361.374 85.7928 495.685C61.2194 542.42 29.4672 584.247 12.9008 636.094C-25.1328 754.767 27.2123 889.382 97.2742 983.637C130.683 1028.6 169.706 1069.8 216.92 1088.75C253.228 1103.32 292.159 1103.93 330.377 1104.31L999.934 1111.9C1074.69 1112.74 1157.75 1109.72 1211.5 1046.11C1248.54 1002.31 1263.59 938.344 1276.36 877.287C1292.05 802.262 1306.27 720.785 1281.86 649.328C1253.97 567.572 1183.45 521.241 1139.64 450.695C1068.55 336.399 1070.18 163.526 979.64 72.2813C937.373 29.6955 881.599 12.9952 827.252 4.64509C724.794 -11.119 627.743 18.6379 527.125 14.4882C441.118 10.9457 348.116 17.1197 276.766 83.0353Z" fill="#E7ECFF"/>
</svg>
