<?xml version="1.0" encoding="UTF-8"?>
<svg version="1.1" viewBox="0 0 1600 1600" width="1280" height="1280" xmlns="http://www.w3.org/2000/svg">
<path transform="translate(771 238)" d="m0 0c5.25 2.91 7.6 6.57 9.65 12.2 0.55 3.44 0.54 6.82 0.51 10.3 0 1.01 0.01 2.03 0.01 3.08 0.02 3.41 0 6.82-0.01 10.2 0 2.46 0.01 4.93 0.02 7.4 0.01 5.37 0.01 10.7 0 16.1-0.01 7.98 0 16 0.01 24 0.02 14.2 0.02 28.5 0.01 42.8-0.01 12.5-0.02 25-0.01 37.4v2.51 10.1c0.01 31.5 0 63-0.02 94.5-0.02 28-0.02 56 0 84 0.03 31.4 0.03 62.9 0.02 94.4v10 2.51c-0.01 12.5 0 24.9 0.01 37.4 0.01 14.2 0.01 28.4-0.02 42.5-0.01 7.94-0.01 15.9 0.01 23.8 0.01 5.92 0 11.8-0.02 17.8-0.01 2.4-0.01 4.8 0 7.19 0.02 3.26 0 6.51-0.01 9.77 0.01 0.93 0.01 1.87 0.02 2.83-0.06 5.97-1.17 10.5-4.53 15.5-2.04 1.91-2.04 1.91-4.19 3.18-0.78 0.48-1.57 0.97-2.39 1.46-2.27 1.27-4.56 2.51-6.86 3.73-17.6 9.59-28.3 26-34.2 44.8-4.69 18.5-1.06 38.1 7.77 54.7 11 18.2 27.8 28.8 47.9 34.2 18.9 3.95 38.4-0.37 54.8-10.4 8.24-5.22 8.24-5.22 14.2-12.6h2c0.25-0.53 0.5-1.05 0.76-1.59 1.26-2.46 2.65-4.81 4.06-7.18 3.85-6.53 7.06-12.9 9.18-20.2 0.23-0.76 0.45-1.52 0.68-2.31 4.45-18.1 0.61-37.4-8.24-53.5-7.45-12.3-16.3-20-28.4-27.2-12.4-7.36-12.4-7.36-15-13-1.2-5.32-1.14-10.6-1.13-16 0-1 0-2.01-0.01-3.04v-10.1c0-2.44 0-4.89-0.01-7.33 0-6.02-0.01-12-0.01-18 0-7.21-0.01-14.4-0.01-21.6-0.02-17.4-0.02-34.8-0.03-52.2 0-8.24 0-16.5-0.01-24.7-0.01-28.2-0.02-56.4-0.03-84.6v-5.3-5.33-10.7-2.68c0-28.6-0.02-57.2-0.04-85.9-0.03-30.3-0.04-60.5-0.04-90.8v-9.96-2.48c0-13.2-0.01-26.3-0.03-39.5-0.01-13.2-0.02-26.4-0.01-39.7 0.01-7.86 0-15.7-0.01-23.6-0.01-5.87-0.01-11.7 0-17.6 0-2.37 0-4.75-0.01-7.13-0.01-3.22 0-6.44 0.01-9.66-0.01-1.4-0.01-1.4-0.02-2.82 0.06-7.71 1.86-13.6 7.39-19.3 5.09-3.52 10-3.7 16-3 7.43 2.42 11.4 8.64 15 15.3 1.06 2.11 2.12 4.22 3.16 6.34 0.59 1.17 1.18 2.34 1.79 3.55 1.63 3.24 3.25 6.5 4.87 9.75 1.76 3.54 3.54 7.08 5.31 10.6 3.1 6.19 6.2 12.4 9.3 18.6 4.59 9.22 9.21 18.4 13.8 27.7 7.76 15.5 15.5 31 23.3 46.5 7.67 15.4 15.4 30.7 23 46.1 0.47 0.96 0.95 1.91 1.44 2.9 1.94 3.87 3.88 7.75 5.82 11.6 18.2 36.4 36.4 72.8 54.5 109 16.2 32.3 32.3 64.7 48.5 97 0.52 1.03 1.03 2.05 1.56 3.11 1.55 3.12 3.11 6.23 4.66 9.34 2.07 4.13 4.14 8.26 6.2 12.4 0.51 1.02 1.02 2.04 1.55 3.09 15.9 31.8 31.8 63.7 47.7 95.5l15.8 31.7c0.72 1.43 0.72 1.43 1.44 2.88 0.48 0.95 0.95 1.9 1.44 2.88 9.14 18.3 18.3 36.6 27.4 54.9 4.58 9.17 9.16 18.3 13.7 27.5 3.06 6.12 6.12 12.2 9.17 18.4 1.74 3.49 3.49 6.98 5.23 10.5 1.88 3.75 3.75 7.51 5.63 11.3 0.54 1.09 1.09 2.18 1.65 3.3 0.75 1.5 0.75 1.5 1.51 3.03 0.43 0.86 0.86 1.72 1.3 2.61 2.61 5.78 3.84 10.3 2.15 16.6-1.55 3.92-3.4 7.67-5.29 11.4-0.54 1.1-1.08 2.2-1.63 3.32-1.68 3.42-3.38 6.83-5.08 10.2-1 2.03-2 4.06-3 6.1-3.08 6.25-6.19 12.5-9.3 18.7-0.87 1.76-1.75 3.52-2.62 5.28-10.9 21.9-21.8 43.8-32.7 65.7-1.41 2.83-2.83 5.66-4.24 8.49-0.35 0.7-0.7 1.41-1.06 2.13-5.72 11.5-11.4 22.9-17.1 34.4-5.87 11.8-11.8 23.6-17.6 35.4-3.3 6.61-6.6 13.2-9.88 19.8-3.08 6.21-6.17 12.4-9.27 18.6-1.14 2.28-2.27 4.55-3.4 6.83-1.53 3.11-3.08 6.2-4.64 9.29-0.45 0.91-0.89 1.82-1.35 2.76-0.42 0.83-0.84 1.65-1.27 2.5-0.36 0.72-0.71 1.43-1.08 2.17-1.93 2.46-3.35 2.95-6.38 3.76-2.94 0.27-5.87 0.28-8.83 0.26-0.89 0.01-1.79 0.01-2.71 0.02-3.01 0.01-6.02 0.01-9.03 0.01-2.18 0.01-4.35 0.01-6.53 0.02-5.98 0.02-12 0.03-18 0.04-6.45 0-12.9 0.02-19.4 0.04-14.8 0.04-29.7 0.06-44.5 0.08-7.34 0-14.7 0.01-22 0.02-25.1 0.04-50.2 0.07-75.3 0.09h-4.72-2.37c-3.96 0-7.92 0-11.9 0.01h-2.38c-25.5 0.01-51 0.06-76.5 0.13-26.9 0.06-53.9 0.1-80.8 0.11h-8.87-2.2c-11.7 0.01-23.5 0.04-35.2 0.08-11.8 0.04-23.6 0.05-35.3 0.03-6.38-0.01-12.8 0-19.2 0.04-5.84 0.03-11.7 0.03-17.5 0-2.12-0.01-4.23 0-6.35 0.03-2.87 0.03-5.74 0.01-8.61-0.02-0.83 0.02-1.66 0.04-2.51 0.06-2.36-0.06-4.12-0.2-6.32-1.05-2.25-2.41-3.61-5.04-5-8-0.47-0.87-0.95-1.74-1.44-2.63-0.38-0.77-0.77-1.54-1.17-2.34-0.45-0.9-0.91-1.81-1.37-2.74-0.49-0.97-0.97-1.94-1.46-2.93-0.53-1.05-1.06-2.1-1.6-3.18-1.44-2.89-2.89-5.78-4.33-8.67-1.56-3.12-3.13-6.24-4.69-9.37-3.06-6.11-6.11-12.2-9.17-18.3-2.48-4.97-4.96-9.93-7.44-14.9-0.36-0.71-0.71-1.41-1.08-2.14-0.72-1.44-1.43-2.88-2.15-4.32-6.74-13.5-13.5-26.9-20.2-40.4-5.78-11.6-11.6-23.1-17.3-34.7-6.72-13.4-13.4-26.8-20.2-40.3-0.71-1.43-1.43-2.87-2.14-4.3-0.53-1.05-0.53-1.05-1.07-2.13l-7.44-14.9c-3.03-6.05-6.05-12.1-9.07-18.1-1.54-3.08-3.08-6.17-4.62-9.25-1.68-3.34-3.34-6.68-5.01-10-0.49-0.97-0.98-1.94-1.48-2.95-6.7-13.5-6.7-13.5-4.59-21.4 1.39-3.61 3.08-7.05 4.81-10.5 0.74-1.49 0.74-1.49 1.48-3.02 1.56-3.16 3.13-6.32 4.71-9.48 1.04-2.1 2.08-4.19 3.12-6.28 2.42-4.87 4.86-9.73 7.31-14.6 2.85-5.67 5.68-11.3 8.52-17 1.75-3.52 3.51-7.03 5.27-10.6 0.71-1.43 1.43-2.85 2.14-4.27 34.4-68.8 68.8-138 280-561 0.71-1.42 1.42-2.85 2.13-4.27 1.72-3.45 3.45-6.89 5.17-10.3 3.05-6.08 6.08-12.2 9.08-18.2 1.37-2.77 2.75-5.54 4.12-8.32 0.7-1.41 1.39-2.81 2.08-4.22 1.03-2.09 2.06-4.17 3.09-6.25 0.31-0.62 0.61-1.25 0.92-1.89 5.38-10.8 13.9-16.6 26-12.2z" fill="#000100"/>
<path transform="translate(268,38)" d="m0 0c0.76 0.7 1.51 1.41 2.29 2.13 4.9 4.98 8.37 10.4 11.6 16.5 0.56 1.06 0.56 1.06 1.14 2.14 2.5 4.88 3.51 8.62 4.92 14.2h439v-37c1.94-7.76 3.19-11.2 9.44-15.8 5.99-2.78 12.5-2.34 19-2.34 1.03 0 2.07 0 3.14-0.01 3.43 0 6.85-0.01 10.3-0.01 2.39 0 4.78 0 7.17-0.01 5 0 10-0.01 15-0.01 6.4 0 12.8-0.01 19.2-0.03 4.93-0.01 9.86-0.01 14.8-0.01 2.36 0 4.72 0 7.07-0.01 3.31-0.01 6.62-0.01 9.93 0 0.96-0.01 1.92-0.01 2.92-0.02 7.14 0.03 14.6 0.31 20.9 3.88 12.8 14.4 6.12 32.2 6.12 51.4h440c1.49-5.44 1.49-5.44 3-11 8.44-18.9 23.7-32.6 43-40 17.6-5.86 37.5-5.3 54.4 2.64 0.86 0.45 1.73 0.9 2.62 1.36 0.83 0.42 1.67 0.84 2.53 1.27 16.1 8.81 27.6 23.5 33.5 40.7 0.32 0.88 0.64 1.77 0.96 2.68 5.44 17.7 2.81 37.9-5.65 54.1-9.63 17.4-23.9 28.8-42.5 35.3-19.7 5.6-39.3 3.65-57.2-6.08-6.31-3.57-11.6-7.73-16.6-13-0.89-0.88-0.89-0.88-1.8-1.79-7.23-7.51-12.2-16.7-15.8-26.4-0.26-0.71-0.53-1.42-0.8-2.15-0.19-0.54-0.39-1.07-0.59-1.62-31.7-0.02-63.4-0.04-95.1-0.05h-11.3c-1.12-0.01-1.12-0.01-2.27-0.01-12 0-24.1-0.01-36.1-0.02-12.4-0.01-24.8-0.01-37.2-0.01-6.95-0.01-13.9-0.01-20.8-0.02-33.1-0.03-66.1 0.22-99.2 1.11 0.58 0.22 1.17 0.44 1.77 0.67 2.7 1.02 5.4 2.04 8.1 3.07 0.91 0.34 1.83 0.69 2.78 1.05 42.3 16.1 83.6 37.4 120 63.8 2.11 1.51 4.23 3.01 6.34 4.51 9.22 6.55 18.2 13.4 26.9 20.5 1.49 1.22 2.99 2.43 4.49 3.63 17.2 14 33.4 28.9 49.2 44.6 0.88 0.87 1.77 1.75 2.68 2.66 4.42 4.43 8.7 8.92 12.8 13.7 2.26 2.62 4.63 5.13 6.99 7.67 3.99 4.33 7.79 8.75 11.4 13.4 1.59 2.03 3.19 4.03 4.81 6.02 11.9 14.7 23.1 29.8 33.3 45.7 0.7 1.08 0.7 1.08 1.41 2.19 7.57 11.7 14.8 23.6 21.6 35.8 0.76 1.35 0.76 1.35 1.53 2.72 17.7 31.6 32.2 64.9 43.5 99.3 0.36 1.09 0.72 2.18 1.08 3.3 9.06 27.8 16.2 55.9 20.9 84.7 0.27 1.63 0.27 1.63 0.55 3.29 4.44 27.2 7.87 55.2 7.45 82.7 1.21-0.02 2.41-0.03 3.65-0.05 4.5-0.05 8.99-0.09 13.5-0.11 1.94-0.02 3.88-0.04 5.82-0.07 2.8-0.03 5.6-0.05 8.4-0.06 0.86-0.02 1.72-0.03 2.61-0.05 6 0 11 0.75 15.8 4.8 3.42 4.57 5.54 7.65 5.55 13.4 0.01 1.47 0.01 1.47 0.02 2.96 0 1.07 0 2.14-0.01 3.24 0.01 1.13 0.01 2.26 0.02 3.43 0.01 3.74 0.01 7.49 0.01 11.2 0 2.6 0.01 5.2 0.01 7.8 0.01 5.46 0.01 10.9 0.01 16.4-0.01 6.29 0 12.6 0.02 18.9 0.02 6.07 0.03 12.1 0.02 18.2 0 2.57 0.01 5.15 0.02 7.72 0.01 3.61 0 7.21-0.01 10.8 0.01 1.06 0.02 2.12 0.03 3.22-0.05 6.66-0.53 12-5.15 17.2-0.6 0.47-1.2 0.93-1.81 1.42-0.6 0.48-1.2 0.96-1.82 1.46-3.82 2.74-7.62 2.39-12.2 2.48-0.89 0.02-1.79 0.04-2.7 0.06-2.99 0.07-5.97 0.13-8.95 0.18-1.02 0.02-2.05 0.04-3.1 0.07-17.7 0.35-35.4 0.48-53 0.49-1.16 0.01-2.31 0.01-3.5 0.01-7.4 0.02-14.8-0.02-22.2-0.13-0.9-0.01-1.81-0.03-2.74-0.04-2.48-0.05-4.95-0.13-7.43-0.22-0.7-0.01-1.4-0.03-2.12-0.04-6.25-0.3-10.5-2.61-15-6.89-4.13-6.88-3.98-14.9-3.95-22.7 0-1.05-0.01-2.1-0.01-3.19-0.01-3.45 0-6.9 0-10.4v-7.24c0-5.04 0-10.1 0.01-15.1 0.01-6.45 0-12.9-0.01-19.4-0.01-4.98 0-9.96 0-14.9v-7.14c-0.01-3.33 0-6.66 0.01-9.99 0-0.98-0.01-1.95-0.01-2.96 0.04-6.77 0.25-13.5 4.52-19.1 4.88-4.77 9.05-6.03 15.7-6.03 1.3 0.02 1.3 0.02 2.62 0.05 0.91 0 1.81 0.01 2.74 0.01 2.86 0.02 5.72 0.05 8.59 0.09 1.94 0.02 3.89 0.03 5.84 0.04 4.76 0.04 9.52 0.09 14.3 0.15-5.17-90.7-25.9-177-150-366-1.86-2.15-3.09-3.92-4.18-6.52h-2c-1.41-1.43-1.41-1.43-3.06-3.44-6.63-8.29-6.63-8.29-14.9-14.6v-2c-0.59-0.27-1.18-0.54-1.79-0.82-2.21-1.18-3.7-2.39-5.5-4.12-0.91-0.87-0.91-0.87-1.83-1.76-0.64-0.61-1.28-1.23-1.94-1.86-6.1-5.78-12.4-11.2-18.9-16.4-1.12-0.91-2.23-1.81-3.34-2.72-71.7-58.3-159-98.6-252-116-1.01-0.18-1.01-0.18-2.04-0.36-9.43-1.7-18.9-3.06-28.4-4.26-0.01 1.05-0.02 2.11-0.03 3.19-0.04 3.94-0.1 7.87-0.18 11.8-0.03 1.69-0.05 3.39-0.06 5.09-0.02 2.45-0.07 4.9-0.12 7.35v2.28c-0.18 6.5-2.4 10.5-6.42 15.6-5.9 4.56-13.3 3.98-20.4 3.96-1.67 0.01-1.67 0.01-3.37 0.02-3.66 0.01-7.32 0.01-11 0.01-2.56 0-5.11 0.01-7.66 0.01-5.34 0.01-10.7 0.01-16 0.01-6.16-0.01-12.3 0-18.5 0.02-5.94 0.02-11.9 0.03-17.8 0.02-2.52 0-5.04 0.01-7.57 0.02-3.52 0.01-7.05 0-10.6-0.01-1.04 0.01-2.08 0.02-3.15 0.03-6.6-0.05-11.9-0.57-17-5.15-0.47-0.6-0.93-1.2-1.42-1.81-0.48-0.6-0.96-1.2-1.46-1.82-6.75-9.4-3.25-29.5-3.16-40.6-68.1 9.25-134 28.8-195 61.8-2.16 1.19-4.34 2.35-6.51 3.52-8.89 4.8-17.5 9.97-26.1 15.3-0.98 0.61-1.96 1.22-2.97 1.85-5.85 3.67-11.5 7.55-17 11.6-2.92 2.14-5.88 4.22-8.86 6.29-17 11.8-33 25-48.3 39-0.88 0.81-1.77 1.62-2.68 2.45-0.81 0.75-1.62 1.5-2.45 2.27-2.06 1.72-3.86 2.86-6.3 3.92v2c-1.43 1.41-1.43 1.41-3.44 3.06-6.85 5.84-13 12.2-18.9 19-1.61 1.82-3.29 3.51-5.05 5.2-3.78 3.72-7.05 7.81-10.4 11.9-1.98 2.42-4.02 4.75-6.13 7.06-8.37 9.33-15.9 19.5-23.1 29.7-0.44 0.61-0.88 1.22-1.33 1.85-19.4 27-35.8 55.5-50.7 85.2-0.41 0.83-0.83 1.65-1.26 2.5-2.38 4.78-4.61 9.61-6.74 14.5-0.39 0.9-0.78 1.79-1.18 2.72-26.6 61.7-40.8 126-45.3 193-0.05 0.74-0.1 1.47-0.15 2.23-0.25 3.96-0.38 7.9-0.33 11.9 1.17 0.01 2.34 0.02 3.54 0.03 4.37 0.04 8.74 0.1 13.1 0.18 1.89 0.03 3.77 0.05 5.66 0.06 2.72 0.02 5.44 0.07 8.16 0.12h2.52c5.79 0.15 10.3 1.15 15 4.61 5.44 5.98 5.72 12 5.65 19.8 0.01 1.16 0.01 2.31 0.02 3.51 0.03 3.81 0.01 7.63-0.01 11.4 0.01 2.66 0.01 5.32 0.02 7.98 0.01 5.57 0 11.1-0.03 16.7-0.03 6.42-0.02 12.8 0.01 19.3 0.02 5.53 0.03 11.1 0.01 16.6 0 3.29 0 6.59 0.01 9.89 0.01 3.67-0.01 7.35-0.03 11 0.01 1.08 0.02 2.16 0.03 3.28-0.1 6.7-1.19 11.4-5.68 16.5-2.69 1.94-2.69 1.94-5 3l-2 1c-2.45 0.16-4.87 0.26-7.32 0.32-0.75 0.02-1.51 0.04-2.28 0.06-2.51 0.07-5.02 0.13-7.52 0.18-0.87 0.02-1.74 0.04-2.63 0.07-18.9 0.44-37.7 0.56-56.6 0.39-2.77-0.02-5.53-0.04-8.3-0.06-4.75-0.03-9.49-0.09-14.2-0.17-1.81-0.03-3.62-0.05-5.43-0.06-2.52-0.02-5.03-0.07-7.54-0.12h-2.24c-5.86-0.17-9.45-2.16-13.6-6.24-3.17-4.05-4.48-6.03-4.51-11.1 0-1-0.01-2-0.02-3.04 0-1.1 0-2.21-0.01-3.35 0-1.16-0.01-2.32-0.02-3.52-0.02-3.85-0.03-7.71-0.04-11.6 0-1.32-0.01-2.63-0.01-3.99-0.02-6.24-0.03-12.5-0.04-18.7-0.01-7.2-0.04-14.4-0.08-21.6-0.03-5.57-0.04-11.1-0.05-16.7 0-3.33-0.01-6.65-0.03-9.97-0.03-3.71-0.03-7.42-0.02-11.1-0.02-1.65-0.02-1.65-0.04-3.33 0.05-7.22 1-10.8 6.14-16 3.73-2.92 5.74-4.49 10.4-4.47h2.55c1.36 0 1.36 0 2.75 0.01 0.93 0 1.86 0.01 2.82 0.01 2.97 0 5.95 0.01 8.92 0.03 2.02 0 4.03 0.01 6.05 0.01 4.94 0.01 9.89 0.03 14.8 0.05 0.04-0.85 0.09-1.7 0.14-2.57 2.35-43.6 7.91-86 17.9-128 0.27-1.16 0.54-2.31 0.82-3.5 7.38-30.9 18.5-61.4 31.2-90.5 0.31-0.72 0.63-1.44 0.95-2.18 1.91-4.33 3.96-8.58 6.05-12.8 0.43-0.88 0.86-1.75 1.3-2.66 6.53-13.3 13.3-26.5 20.7-39.3 0.45-0.78 0.91-1.57 1.37-2.37 10.6-18.2 22.2-35.7 34.6-52.6 0.48-0.65 0.95-1.3 1.44-1.96 6.3-8.54 12.7-16.9 19.6-25 0.65-0.77 0.65-0.77 1.31-1.57 6.08-7.28 12.3-14.4 18.7-21.4 0.8-0.89 1.6-1.78 2.42-2.7 6.87-7.62 14.1-14.9 21.3-22.2 0.5-0.49 0.99-0.99 1.5-1.5 5.74-5.76 11.6-11.3 17.8-16.6 1.61-1.45 3.21-2.91 4.81-4.38 9.08-8.17 18.7-15.7 28.4-23.2 1.2-0.92 2.4-1.86 3.59-2.79 32.1-25.1 68-46.7 105-63.6 2.01-0.93 4-1.88 5.98-2.84 10.9-5.26 22.1-9.63 33.4-14 3.31-1.33 6.58-2.74 9.85-4.15-38-0.77-75.9-1.14-114-1.1-5.94 0-11.9 0.01-17.8 0.01-11.7 0-23.4 0-35.2 0.01-11.3 0.01-22.7 0.02-34 0.03h-2.14-10.6c-29.1 0.01-58.2 0.03-87.4 0.05-0.34 0.83-0.68 1.65-1.03 2.5-0.45 1.09-0.9 2.17-1.36 3.28-0.45 1.08-0.89 2.15-1.35 3.26-7.27 17.1-20.5 31-37.3 39-18.5 7.19-39 9.01-57.6 1.25-1.48-0.72-2.93-1.48-4.38-2.25-0.93-0.48-1.87-0.96-2.83-1.46-17.8-9.73-30-25.5-36-44.8-4.57-19.3-1.59-38.9 8.25-56.1 7.18-11.4 16-19.8 27.6-26.6 0.64-0.39 1.29-0.78 1.95-1.18 26.4-14.7 61.6-8.03 83 12.2z" fill="#000100"/>
<path transform="translate(490 1255)" d="m0 0c0.9-0 1.81-0.01 2.74-0.01 1.49 0 1.49 0 3.02 0.01 1.06-0.01 2.12-0.01 3.21-0.01 3.59-0.01 7.17 0 10.8 0 2.59-0.01 5.17-0.01 7.75-0.01 6.38-0.01 12.8-0.01 19.1-0.01 7.64 0 15.3-0.01 22.9-0.02 18.5-0.01 36.9-0.02 55.4-0.02 8.73-0.01 17.5-0.01 26.2-0.01 29.9-0.02 59.8-0.03 89.6-0.03h5.63 5.64 11.3 2.84c30.3-0.01 60.7-0.02 91-0.05 32.1-0.02 64.1-0.03 96.2-0.04h10.6 2.62c14 0 27.9-0.01 41.9-0.02 14-0.02 28-0.02 42.1-0.01 8.33 0 16.7 0 25-0.02 6.22-0.01 12.4 0 18.6 0.01 2.52 0 5.04 0 7.56-0.01 3.42-0.01 6.83-0.01 10.2 0.01 0.99-0.01 1.97-0.02 2.99-0.03 7.2 0.06 12.2 0.93 17.5 6.21 4.45 6.49 4.47 12.4 4.44 20 0.01 1.62 0.01 1.62 0.01 3.28 0.01 3.56 0.01 7.13 0 10.7 0 2.49 0 4.97 0.01 7.45 0 5.21 0 10.4-0.01 15.6-0.02 6.66-0.01 13.3 0 20 0.01 5.13 0.01 10.3 0 15.4 0 2.45 0 4.91 0.01 7.36 0 3.44 0 6.88-0.02 10.3 0.01 1.01 0.01 2.02 0.02 3.06-0.05 6.99-0.14 14.5-5.09 19.9-0.48 0.56-0.96 1.11-1.45 1.68-4.2 3.51-8.61 3.73-13.9 3.86-0.72 0.02-1.43 0.04-2.18 0.06-2.43 0.06-4.86 0.1-7.29 0.15-1.78 0.04-3.55 0.07-5.33 0.11-23.4 0.47-46.9 0.39-70.3 0.36-7.13-0.01-14.3-0.01-21.4-0.02-17.2 0-34.4-0.02-51.5-0.04-8.14-0.01-16.3-0.02-24.4-0.03-27.9-0.03-55.8-0.06-83.7-0.1-1.74-0.01-3.48-0.01-5.22-0.01-0.87 0-1.73 0-2.62-0.01-4.38 0-8.75-0.01-13.1-0.01-0.87-0.01-1.74-0.01-2.63-0.01-28.3-0.04-56.5-0.06-84.8-0.08-30-0.02-59.9-0.05-89.9-0.1-3.28 0-6.56-0.01-9.85-0.01-0.81 0-1.61 0-2.45-0.01-13-0.02-26-0.02-39-0.02-13-0.01-26.1-0.02-39.1-0.06-7.75-0.01-15.5-0.02-23.2-0.01-5.78 0-11.6-0.01-17.3-0.04h-7.02c-3.17 0.01-6.35 0-9.52-0.02-1.38 0.01-1.38 0.01-2.78 0.02-6.58-0.08-9.88-1.52-14.7-6.09-3.68-4.54-4.47-7.59-4.51-13.3-0.01-0.98-0.02-1.96-0.02-2.97-0.01-1.06-0.01-2.13-0.02-3.23-0.01-1.13-0.01-2.26-0.02-3.42-0.03-3.74-0.04-7.48-0.06-11.2 0-1.27-0.01-2.55-0.01-3.87-0.03-5.36-0.04-10.7-0.06-16.1-0.01-7.68-0.05-15.4-0.1-23-0.05-6.06-0.06-12.1-0.07-18.2 0-2.58-0.02-5.15-0.04-7.72-0.04-3.6-0.04-7.2-0.03-10.8-0.01-1.06-0.03-2.12-0.05-3.21 0.06-6.72 1.26-11.2 5.64-16.4 3.99-3.71 6.97-5.13 12.4-5.13z" fill="#000100"/>
<path transform="translate(534 1437)" d="m0 0c0.87 0 1.74 0.01 2.64 0.01 0.92 0 1.84 0 2.78-0.01 3.13 0 6.25 0.01 9.37 0.01h6.73 18.6c5.99 0.01 12 0.01 18 0.01 12.3 0 24.5 0 36.8 0.01 12.1 0 24.3 0.01 36.4 0.01h2.28 11.5c27.2 0 54.3 0.01 81.4 0.02 26.4 0 52.8 0.01 79.1 0.02h2.46 24.5c16.6 0 33.2 0.01 49.9 0.01h2.32c51.1 0.01 102 0.02 153 0.04 0.09 17 0.16 33.9 0.21 50.9 0.02 7.87 0.04 15.8 0.09 23.6 0.04 6.87 0.07 13.7 0.07 20.6 0.01 3.63 0.02 7.27 0.05 10.9 0.03 4.06 0.03 8.12 0.03 12.2 0.02 1.2 0.03 2.4 0.05 3.64-0.04 7.59-0.89 12.2-6.06 17.9-5.62 4.43-10 4.41-17 4.4h-2.66c-2.96 0.01-5.92 0.01-8.88 0.01-2.13 0-4.27 0.01-6.41 0.01-5.88 0.01-11.8 0.01-17.6 0.02-6.34 0-12.7 0.01-19 0.02-14.6 0.02-29.2 0.03-43.8 0.04-7.21 0-14.4 0-21.6 0.01-24.7 0.02-49.4 0.03-74 0.04h-4.64-2.33c-3.89 0-7.79 0-11.7 0.01h-2.34c-25 0-50.1 0.03-75.2 0.06-26.5 0.04-53 0.05-79.4 0.06h-8.72-2.17c-11.5 0-23 0.02-34.6 0.04-11.6 0.02-23.2 0.02-34.7 0.01-6.27 0-12.6 0-18.8 0.02-5.74 0.02-11.5 0.02-17.2 0-2.08 0-4.16 0-6.24 0.02-2.82 0.01-5.64 0-8.47-0.01-0.81 0.01-1.62 0.02-2.46 0.03-5.25-0.07-8.16-1.11-12.4-4.53-1.87-1.93-1.87-1.93-3.31-3.87-0.5-0.64-0.99-1.28-1.49-1.93-3.29-6.03-2.34-13.7-2.33-20.3 0-1.22-0.01-2.44-0.01-3.69v-9.99c0.01-3.48 0-6.96 0-10.4 0-5.84 0-11.7 0.01-17.5v-20.3c-0.01-5.8-0.01-11.6-0.01-17.4v-10.4c0-3.86 0-7.72 0.01-11.6 0-1.15-0.01-2.31-0.01-3.5 0.01-1.04 0.01-2.09 0.01-3.16v-2.77c0.27-4.39 3.44-3.18 7.11-3.19z" fill="#000100"/>
</svg>
