<svg height="32" viewBox="0 0 126 24" fill="none"><rect width="24" height="24" rx="2" fill="#63B3ED"></rect><path d="M15.0906 7H17.1786V19H15.0906V17.272C14.2426 18.632 12.9466 19.312 11.2026 19.312C9.79456 19.312 8.66656 18.872 7.81856 17.992C6.97056 17.096 6.54656 15.888 6.54656 14.368V7H8.63456V14.248C8.63456 15.224 8.89856 15.984 9.42656 16.528C9.95456 17.056 10.6826 17.32 11.6106 17.32C12.6506 17.32 13.4906 17 14.1306 16.36C14.7706 15.704 15.0906 14.704 15.0906 13.36V7Z" fill="white"></path><path d="M41.864 7H43.952V19H41.864V17.272C41.016 18.632 39.72 19.312 37.976 19.312C36.568 19.312 35.44 18.872 34.592 17.992C33.744 17.096 33.32 15.888 33.32 14.368V7H35.408V14.248C35.408 15.224 35.672 15.984 36.2 16.528C36.728 17.056 37.456 17.32 38.384 17.32C39.424 17.32 40.264 17 40.904 16.36C41.544 15.704 41.864 14.704 41.864 13.36V7ZM53.7549 6.688C55.4349 6.688 56.8669 7.304 58.0509 8.536C59.2349 9.752 59.8269 11.24 59.8269 13C59.8269 14.76 59.2349 16.256 58.0509 17.488C56.8669 18.704 55.4349 19.312 53.7549 19.312C51.7709 19.312 50.2589 18.52 49.2189 16.936V23.8H47.1309V7H49.2189V9.064C50.2589 7.48 51.7709 6.688 53.7549 6.688ZM53.4909 17.296C54.6909 17.296 55.6989 16.888 56.5149 16.072C57.3309 15.24 57.7389 14.216 57.7389 13C57.7389 11.784 57.3309 10.768 56.5149 9.952C55.6989 9.12 54.6909 8.704 53.4909 8.704C52.2749 8.704 51.2589 9.12 50.4429 9.952C49.6269 10.768 49.2189 11.784 49.2189 13C49.2189 14.216 49.6269 15.24 50.4429 16.072C51.2589 16.888 52.2749 17.296 53.4909 17.296ZM72.2544 2.2H74.3424V19H72.2544V16.936C71.2144 18.52 69.7024 19.312 67.7184 19.312C66.0384 19.312 64.6064 18.704 63.4224 17.488C62.2384 16.256 61.6464 14.76 61.6464 13C61.6464 11.24 62.2384 9.752 63.4224 8.536C64.6064 7.304 66.0384 6.688 67.7184 6.688C69.7024 6.688 71.2144 7.48 72.2544 9.064V2.2ZM67.9824 17.296C69.1984 17.296 70.2144 16.888 71.0304 16.072C71.8464 15.24 72.2544 14.216 72.2544 13C72.2544 11.784 71.8464 10.768 71.0304 9.952C70.2144 9.12 69.1984 8.704 67.9824 8.704C66.7824 8.704 65.7744 9.12 64.9584 9.952C64.1424 10.768 63.7344 11.784 63.7344 13C63.7344 14.216 64.1424 15.24 64.9584 16.072C65.7744 16.888 66.7824 17.296 67.9824 17.296ZM79.5939 9.016C80.2819 7.528 81.5299 6.784 83.3379 6.784V8.968C82.3139 8.92 81.4339 9.192 80.6979 9.784C79.9619 10.376 79.5939 11.328 79.5939 12.64V19H77.5059V7H79.5939V9.016ZM94.6606 7H96.7486V19H94.6606V16.936C93.6206 18.52 92.1086 19.312 90.1246 19.312C88.4446 19.312 87.0126 18.704 85.8286 17.488C84.6446 16.256 84.0526 14.76 84.0526 13C84.0526 11.24 84.6446 9.752 85.8286 8.536C87.0126 7.304 88.4446 6.688 90.1246 6.688C92.1086 6.688 93.6206 7.48 94.6606 9.064V7ZM90.3886 17.296C91.6046 17.296 92.6206 16.888 93.4366 16.072C94.2526 15.24 94.6606 14.216 94.6606 13C94.6606 11.784 94.2526 10.768 93.4366 9.952C92.6206 9.12 91.6046 8.704 90.3886 8.704C89.1886 8.704 88.1806 9.12 87.3646 9.952C86.5486 10.768 86.1406 11.784 86.1406 13C86.1406 14.216 86.5486 15.24 87.3646 16.072C88.1806 16.888 89.1886 17.296 90.3886 17.296ZM106.08 3.904C103.968 3.728 102.912 4.64 102.912 6.64V7H106.08V9.016H102.912V19H100.824V9.016H98.9041V7H100.824V6.64C100.824 5.024 101.272 3.8 102.168 2.968C103.08 2.136 104.384 1.776 106.08 1.888V3.904ZM114.643 9.016H111.451V15.52C111.451 16.112 111.563 16.536 111.787 16.792C112.027 17.032 112.387 17.16 112.867 17.176C113.347 17.176 113.939 17.16 114.643 17.128V19C112.819 19.24 111.483 19.096 110.635 18.568C109.787 18.024 109.363 17.008 109.363 15.52V9.016H106.987V7H109.363V4.264L111.451 3.64V7H114.643V9.016ZM118.329 10.24C118.329 10.704 118.561 11.08 119.025 11.368C119.489 11.64 120.049 11.864 120.705 12.04C121.361 12.2 122.017 12.392 122.673 12.616C123.329 12.824 123.889 13.192 124.353 13.72C124.817 14.232 125.049 14.896 125.049 15.712C125.049 16.8 124.625 17.672 123.777 18.328C122.945 18.984 121.873 19.312 120.561 19.312C119.393 19.312 118.393 19.056 117.561 18.544C116.729 18.032 116.137 17.352 115.785 16.504L117.585 15.472C117.777 16.048 118.137 16.504 118.665 16.84C119.193 17.176 119.825 17.344 120.561 17.344C121.249 17.344 121.817 17.216 122.265 16.96C122.713 16.688 122.937 16.272 122.937 15.712C122.937 15.248 122.705 14.88 122.241 14.608C121.777 14.32 121.217 14.096 120.561 13.936C119.905 13.76 119.249 13.56 118.593 13.336C117.937 13.112 117.377 12.744 116.913 12.232C116.449 11.72 116.217 11.064 116.217 10.264C116.217 9.224 116.617 8.368 117.417 7.696C118.233 7.024 119.249 6.688 120.465 6.688C121.441 6.688 122.305 6.912 123.057 7.36C123.825 7.792 124.401 8.4 124.785 9.184L123.033 10.168C122.601 9.144 121.745 8.632 120.465 8.632C119.873 8.632 119.369 8.776 118.953 9.064C118.537 9.336 118.329 9.728 118.329 10.24Z" ></path></svg>